<mxfile host="app.diagrams.net" modified="2023-07-11T16:21:02.243Z" agent="Mozilla/5.0 (Windows NT 10.0; Win64; x64; rv:109.0) Gecko/20100101 Firefox/115.0" etag="SKT0N_ZPM_WMMIbcTa8C" version="21.6.2" type="github">
  <diagram name="Page-1" id="UO4-BMnbqjIwqz6x6uQH">
    <mxGraphModel dx="478" dy="792" grid="1" gridSize="10" guides="1" tooltips="1" connect="1" arrows="1" fold="1" page="1" pageScale="1" pageWidth="850" pageHeight="1100" math="0" shadow="0">
      <root>
        <mxCell id="0" />
        <mxCell id="1" parent="0" />
        <mxCell id="WOpBPVeNc5zzb4Up8IcJ-1" value="sucursal" style="whiteSpace=wrap;html=1;align=center;" vertex="1" parent="1">
          <mxGeometry x="120" y="160" width="100" height="40" as="geometry" />
        </mxCell>
        <mxCell id="WOpBPVeNc5zzb4Up8IcJ-2" value="&lt;div&gt;Empleado&lt;/div&gt;" style="whiteSpace=wrap;html=1;align=center;" vertex="1" parent="1">
          <mxGeometry x="120" y="240" width="100" height="40" as="geometry" />
        </mxCell>
        <mxCell id="WOpBPVeNc5zzb4Up8IcJ-3" value="&lt;div&gt;Periodista&lt;/div&gt;" style="whiteSpace=wrap;html=1;align=center;" vertex="1" parent="1">
          <mxGeometry x="120" y="810" width="100" height="40" as="geometry" />
        </mxCell>
        <mxCell id="WOpBPVeNc5zzb4Up8IcJ-4" value="Revista" style="whiteSpace=wrap;html=1;align=center;" vertex="1" parent="1">
          <mxGeometry x="130" y="500" width="100" height="40" as="geometry" />
        </mxCell>
      </root>
    </mxGraphModel>
  </diagram>
</mxfile>
